<svg width="85" height="80" viewBox="0 0 85 80" fill="none" xmlns="http://www.w3.org/2000/svg">
<rect width="85" height="80" rx="5" fill="#111111"/>
<g clip-path="url(#clip0)">
<path d="M32.2044 15H23.968C20.5622 15 17.7906 17.8603 17.7906 21.375V29.875C17.7906 33.3897 20.5622 36.25 23.968 36.25H32.2044C35.6101 36.25 38.3817 33.3897 38.3817 29.875V21.375C38.3817 17.8603 35.6102 15 32.2044 15Z" fill="white"/>
<path d="M61.032 15H52.7956C49.3898 15 46.6182 17.8603 46.6182 21.375V29.875C46.6182 33.3897 49.3898 36.25 52.7956 36.25H61.032C64.4377 36.25 67.2093 33.3897 67.2093 29.875V21.375C67.2093 17.8603 64.4377 15 61.032 15Z" fill="white"/>
<path d="M32.2044 44.75H23.968C20.5622 44.75 17.7906 47.6103 17.7906 51.125V59.625C17.7906 63.1397 20.5622 66 23.968 66H32.2044C35.6101 66 38.3817 63.1397 38.3817 59.625V51.125C38.3817 47.6102 35.6102 44.75 32.2044 44.75Z" fill="white"/>
<path d="M65.1502 53.25H58.9729V46.875C58.9729 45.702 58.0525 44.75 56.9138 44.75C55.7751 44.75 54.8546 45.702 54.8546 46.875V53.25H48.6773C47.5386 53.25 46.6182 54.202 46.6182 55.375C46.6182 56.548 47.5386 57.4999 48.6773 57.4999H54.8546V63.8749C54.8546 65.0479 55.7751 65.9999 56.9137 65.9999C58.0524 65.9999 58.9728 65.0479 58.9728 63.8749V57.4999H65.1501C66.2888 57.4999 67.2092 56.548 67.2092 55.375C67.2092 54.202 66.2889 53.25 65.1502 53.25Z" fill="#E41313"/>
</g>
<defs>
<clipPath id="clip0">
<rect width="49.4186" height="51" fill="white" transform="translate(17.7906 15)"/>
</clipPath>
</defs>
</svg>
